#N canvas -713 196 450 300 10;
#X obj -3647 -1978 phasor~;
#X obj -3646 -1954 expr~ if($v1 < 0.5 \, $v1 * 2 \, 2 - $v1 * 2);
#X obj -3647 -2002 inlet;
#X obj -3646 -1882 outlet~;
#X obj -3646 -1904 *~ 2;
#X obj -3646 -1932 -~ 0.5;
#X connect 0 0 1 0;
#X connect 1 0 5 0;
#X connect 2 0 0 0;
#X connect 4 0 3 0;
#X connect 5 0 4 0;
