#N canvas 54 -8 1538 854 10;
#X obj 161 146 vradio 15 1 0 3 osc1 empty OSC_1 0 -8 0 10 -257985 -1
-1 0;
#X obj 226 30 loadbang;
#X obj 205 147 vradio 15 1 0 3 osc2 empty OSC_2 0 -8 0 10 -257985 -1
-1 2;
#X obj 118 228 hsl 128 15 20 1500 0 0 lop empty Low_Pass_Cutoff -2
-8 0 10 -4034 -1 -1 3600 1;
#X obj 268 117 vsl 15 128 0 300 0 0 attack empty attack 0 -9 0 10 -204800
-1 -1 0 1;
#X obj 303 117 vsl 15 128 0 500 0 0 decay empty decay 0 -9 0 10 -204800
-1 -1 1700 1;
#X obj 339 117 vsl 15 128 0 1 0 0 sustain empty sustain 0 -9 0 10 -204800
-1 -1 12700 1;
#X obj 378 117 vsl 15 128 0 1000 0 0 release empty release 0 -9 0 10
-204800 -1 -1 6500 1;
#X text 104 158 Triangle;
#X text 104 174 Square;
#X text 104 143 Saw;
#N canvas 950 0 634 838 voice 1;
#X obj -807 208 +~;
#X obj -671 274 +~;
#X obj -916 63 phasor~;
#X obj -832 63 my_triangle~;
#X obj -744 63 my_square~;
#X obj -917 167 *~;
#X msg -860 138 0;
#X msg -890 138 1;
#X obj -890 88 r osc1;
#X obj -890 112 select 0;
#X obj -832 170 *~;
#X msg -787 138 0;
#X msg -817 138 1;
#X obj -817 88 r osc1;
#X obj -744 172 *~;
#X msg -699 139 0;
#X msg -729 139 1;
#X obj -729 89 r osc1;
#X obj -817 112 select 1;
#X obj -729 113 select 2;
#X obj -562 208 +~;
#X obj -644 65 phasor~;
#X obj -561 65 my_triangle~;
#X obj -463 66 my_square~;
#X obj -644 172 *~;
#X msg -599 140 0;
#X msg -629 140 1;
#X obj -629 114 select 0;
#X obj -561 172 *~;
#X msg -516 140 0;
#X msg -546 140 1;
#X obj -462 173 *~;
#X msg -417 135 0;
#X msg -447 142 1;
#X obj -546 114 select 1;
#X obj -447 116 select 2;
#X obj -629 90 r osc2;
#X obj -546 90 r osc2;
#X obj -447 92 r osc2;
#X obj -808 232 *~ 0.5;
#X obj -563 233 *~ 0.5;
#X obj -672 470 *~ 0.2;
#X obj -671 525 outlet~;
#X obj -916 -79 inlet;
#X obj -916 -44 unpack f f;
#X obj -672 500 *~;
#X obj -617 470 vline~;
#X msg -650 412 l \$2 \, \$4 \$3 \$2;
#X msg -514 408 0 \$2;
#X obj -514 373 pack f f;
#X obj -514 343 sel 0;
#X obj -650 378 pack f f f f;
#X obj -627 297 r attack;
#X obj -604 320 r decay;
#X obj -581 343 r sustain;
#X obj -469 343 r release;
#X obj -916 -11 stripnote;
#X obj -916 16 mtof;
#X connect 0 0 39 0;
#X connect 1 0 41 0;
#X connect 2 0 5 0;
#X connect 3 0 10 0;
#X connect 4 0 14 0;
#X connect 5 0 0 0;
#X connect 6 0 5 1;
#X connect 7 0 5 1;
#X connect 8 0 9 0;
#X connect 9 0 7 0;
#X connect 9 1 6 0;
#X connect 10 0 0 0;
#X connect 11 0 10 1;
#X connect 12 0 10 1;
#X connect 13 0 18 0;
#X connect 14 0 0 1;
#X connect 15 0 14 1;
#X connect 16 0 14 1;
#X connect 17 0 19 0;
#X connect 18 0 12 0;
#X connect 18 1 11 0;
#X connect 19 0 16 0;
#X connect 19 1 15 0;
#X connect 20 0 40 0;
#X connect 21 0 24 0;
#X connect 22 0 28 0;
#X connect 23 0 31 0;
#X connect 24 0 20 0;
#X connect 25 0 24 1;
#X connect 26 0 24 1;
#X connect 27 0 26 0;
#X connect 27 1 25 0;
#X connect 28 0 20 0;
#X connect 29 0 28 1;
#X connect 30 0 28 1;
#X connect 31 0 20 1;
#X connect 32 0 31 1;
#X connect 33 0 31 1;
#X connect 34 0 30 0;
#X connect 34 1 29 0;
#X connect 35 0 33 0;
#X connect 35 1 32 0;
#X connect 36 0 27 0;
#X connect 37 0 34 0;
#X connect 38 0 35 0;
#X connect 39 0 1 0;
#X connect 40 0 1 1;
#X connect 41 0 45 0;
#X connect 43 0 44 0;
#X connect 44 0 56 0;
#X connect 44 1 50 0;
#X connect 44 1 56 1;
#X connect 45 0 42 0;
#X connect 46 0 45 1;
#X connect 47 0 46 0;
#X connect 48 0 46 0;
#X connect 49 0 48 0;
#X connect 50 0 49 0;
#X connect 51 0 47 0;
#X connect 52 0 51 1;
#X connect 53 0 51 2;
#X connect 54 0 51 3;
#X connect 55 0 49 1;
#X connect 56 0 51 0;
#X connect 56 0 57 0;
#X connect 57 0 2 0;
#X connect 57 0 3 0;
#X connect 57 0 4 0;
#X connect 57 0 21 0;
#X connect 57 0 22 0;
#X connect 57 0 23 0;
#X restore 22 292 pd voice;
#X obj 22 127 poly 8;
#X obj 22 155 pack f f f;
#X obj 22 255 route 1 2 3 4 5 6 7 8;
#N canvas 950 0 634 838 voice 0;
#X obj -807 208 +~;
#X obj -671 274 +~;
#X obj -916 63 phasor~;
#X obj -832 63 my_triangle~;
#X obj -744 63 my_square~;
#X obj -917 167 *~;
#X msg -860 138 0;
#X msg -890 138 1;
#X obj -890 88 r osc1;
#X obj -890 112 select 0;
#X obj -832 170 *~;
#X msg -787 138 0;
#X msg -817 138 1;
#X obj -817 88 r osc1;
#X obj -744 172 *~;
#X msg -699 139 0;
#X msg -729 139 1;
#X obj -729 89 r osc1;
#X obj -817 112 select 1;
#X obj -729 113 select 2;
#X obj -562 208 +~;
#X obj -644 65 phasor~;
#X obj -561 65 my_triangle~;
#X obj -463 66 my_square~;
#X obj -644 172 *~;
#X msg -599 140 0;
#X msg -629 140 1;
#X obj -629 114 select 0;
#X obj -561 172 *~;
#X msg -516 140 0;
#X msg -546 140 1;
#X obj -462 173 *~;
#X msg -417 135 0;
#X msg -447 142 1;
#X obj -546 114 select 1;
#X obj -447 116 select 2;
#X obj -629 90 r osc2;
#X obj -546 90 r osc2;
#X obj -447 92 r osc2;
#X obj -808 232 *~ 0.5;
#X obj -563 233 *~ 0.5;
#X obj -672 470 *~ 0.2;
#X obj -671 525 outlet~;
#X obj -916 -79 inlet;
#X obj -916 -44 unpack f f;
#X obj -672 500 *~;
#X obj -617 470 vline~;
#X msg -650 412 l \$2 \, \$4 \$3 \$2;
#X msg -514 408 0 \$2;
#X obj -514 373 pack f f;
#X obj -514 343 sel 0;
#X obj -650 378 pack f f f f;
#X obj -627 297 r attack;
#X obj -604 320 r decay;
#X obj -581 343 r sustain;
#X obj -469 343 r release;
#X obj -916 -11 stripnote;
#X obj -916 16 mtof;
#X connect 0 0 39 0;
#X connect 1 0 41 0;
#X connect 2 0 5 0;
#X connect 3 0 10 0;
#X connect 4 0 14 0;
#X connect 5 0 0 0;
#X connect 6 0 5 1;
#X connect 7 0 5 1;
#X connect 8 0 9 0;
#X connect 9 0 7 0;
#X connect 9 1 6 0;
#X connect 10 0 0 0;
#X connect 11 0 10 1;
#X connect 12 0 10 1;
#X connect 13 0 18 0;
#X connect 14 0 0 1;
#X connect 15 0 14 1;
#X connect 16 0 14 1;
#X connect 17 0 19 0;
#X connect 18 0 12 0;
#X connect 18 1 11 0;
#X connect 19 0 16 0;
#X connect 19 1 15 0;
#X connect 20 0 40 0;
#X connect 21 0 24 0;
#X connect 22 0 28 0;
#X connect 23 0 31 0;
#X connect 24 0 20 0;
#X connect 25 0 24 1;
#X connect 26 0 24 1;
#X connect 27 0 26 0;
#X connect 27 1 25 0;
#X connect 28 0 20 0;
#X connect 29 0 28 1;
#X connect 30 0 28 1;
#X connect 31 0 20 1;
#X connect 32 0 31 1;
#X connect 33 0 31 1;
#X connect 34 0 30 0;
#X connect 34 1 29 0;
#X connect 35 0 33 0;
#X connect 35 1 32 0;
#X connect 36 0 27 0;
#X connect 37 0 34 0;
#X connect 38 0 35 0;
#X connect 39 0 1 0;
#X connect 40 0 1 1;
#X connect 41 0 45 0;
#X connect 43 0 44 0;
#X connect 44 0 56 0;
#X connect 44 1 50 0;
#X connect 44 1 56 1;
#X connect 45 0 42 0;
#X connect 46 0 45 1;
#X connect 47 0 46 0;
#X connect 48 0 46 0;
#X connect 49 0 48 0;
#X connect 50 0 49 0;
#X connect 51 0 47 0;
#X connect 52 0 51 1;
#X connect 53 0 51 2;
#X connect 54 0 51 3;
#X connect 55 0 49 1;
#X connect 56 0 51 0;
#X connect 56 0 57 0;
#X connect 57 0 2 0;
#X connect 57 0 3 0;
#X connect 57 0 4 0;
#X connect 57 0 21 0;
#X connect 57 0 22 0;
#X connect 57 0 23 0;
#X restore 91 294 pd voice;
#N canvas 950 0 634 838 voice 0;
#X obj -807 208 +~;
#X obj -671 274 +~;
#X obj -916 63 phasor~;
#X obj -832 63 my_triangle~;
#X obj -744 63 my_square~;
#X obj -917 167 *~;
#X msg -860 138 0;
#X msg -890 138 1;
#X obj -890 88 r osc1;
#X obj -890 112 select 0;
#X obj -832 170 *~;
#X msg -787 138 0;
#X msg -817 138 1;
#X obj -817 88 r osc1;
#X obj -744 172 *~;
#X msg -699 139 0;
#X msg -729 139 1;
#X obj -729 89 r osc1;
#X obj -817 112 select 1;
#X obj -729 113 select 2;
#X obj -562 208 +~;
#X obj -644 65 phasor~;
#X obj -561 65 my_triangle~;
#X obj -463 66 my_square~;
#X obj -644 172 *~;
#X msg -599 140 0;
#X msg -629 140 1;
#X obj -629 114 select 0;
#X obj -561 172 *~;
#X msg -516 140 0;
#X msg -546 140 1;
#X obj -462 173 *~;
#X msg -417 135 0;
#X msg -447 142 1;
#X obj -546 114 select 1;
#X obj -447 116 select 2;
#X obj -629 90 r osc2;
#X obj -546 90 r osc2;
#X obj -447 92 r osc2;
#X obj -808 232 *~ 0.5;
#X obj -563 233 *~ 0.5;
#X obj -672 470 *~ 0.2;
#X obj -671 525 outlet~;
#X obj -916 -79 inlet;
#X obj -916 -44 unpack f f;
#X obj -672 500 *~;
#X obj -617 470 vline~;
#X msg -650 412 l \$2 \, \$4 \$3 \$2;
#X msg -514 408 0 \$2;
#X obj -514 373 pack f f;
#X obj -514 343 sel 0;
#X obj -650 378 pack f f f f;
#X obj -627 297 r attack;
#X obj -604 320 r decay;
#X obj -581 343 r sustain;
#X obj -469 343 r release;
#X obj -916 -11 stripnote;
#X obj -916 16 mtof;
#X connect 0 0 39 0;
#X connect 1 0 41 0;
#X connect 2 0 5 0;
#X connect 3 0 10 0;
#X connect 4 0 14 0;
#X connect 5 0 0 0;
#X connect 6 0 5 1;
#X connect 7 0 5 1;
#X connect 8 0 9 0;
#X connect 9 0 7 0;
#X connect 9 1 6 0;
#X connect 10 0 0 0;
#X connect 11 0 10 1;
#X connect 12 0 10 1;
#X connect 13 0 18 0;
#X connect 14 0 0 1;
#X connect 15 0 14 1;
#X connect 16 0 14 1;
#X connect 17 0 19 0;
#X connect 18 0 12 0;
#X connect 18 1 11 0;
#X connect 19 0 16 0;
#X connect 19 1 15 0;
#X connect 20 0 40 0;
#X connect 21 0 24 0;
#X connect 22 0 28 0;
#X connect 23 0 31 0;
#X connect 24 0 20 0;
#X connect 25 0 24 1;
#X connect 26 0 24 1;
#X connect 27 0 26 0;
#X connect 27 1 25 0;
#X connect 28 0 20 0;
#X connect 29 0 28 1;
#X connect 30 0 28 1;
#X connect 31 0 20 1;
#X connect 32 0 31 1;
#X connect 33 0 31 1;
#X connect 34 0 30 0;
#X connect 34 1 29 0;
#X connect 35 0 33 0;
#X connect 35 1 32 0;
#X connect 36 0 27 0;
#X connect 37 0 34 0;
#X connect 38 0 35 0;
#X connect 39 0 1 0;
#X connect 40 0 1 1;
#X connect 41 0 45 0;
#X connect 43 0 44 0;
#X connect 44 0 56 0;
#X connect 44 1 50 0;
#X connect 44 1 56 1;
#X connect 45 0 42 0;
#X connect 46 0 45 1;
#X connect 47 0 46 0;
#X connect 48 0 46 0;
#X connect 49 0 48 0;
#X connect 50 0 49 0;
#X connect 51 0 47 0;
#X connect 52 0 51 1;
#X connect 53 0 51 2;
#X connect 54 0 51 3;
#X connect 55 0 49 1;
#X connect 56 0 51 0;
#X connect 56 0 57 0;
#X connect 57 0 2 0;
#X connect 57 0 3 0;
#X connect 57 0 4 0;
#X connect 57 0 21 0;
#X connect 57 0 22 0;
#X connect 57 0 23 0;
#X restore 152 292 pd voice;
#N canvas 950 0 634 838 voice 0;
#X obj -807 208 +~;
#X obj -671 274 +~;
#X obj -916 63 phasor~;
#X obj -832 63 my_triangle~;
#X obj -744 63 my_square~;
#X obj -917 167 *~;
#X msg -860 138 0;
#X msg -890 138 1;
#X obj -890 88 r osc1;
#X obj -890 112 select 0;
#X obj -832 170 *~;
#X msg -787 138 0;
#X msg -817 138 1;
#X obj -817 88 r osc1;
#X obj -744 172 *~;
#X msg -699 139 0;
#X msg -729 139 1;
#X obj -729 89 r osc1;
#X obj -817 112 select 1;
#X obj -729 113 select 2;
#X obj -562 208 +~;
#X obj -644 65 phasor~;
#X obj -561 65 my_triangle~;
#X obj -463 66 my_square~;
#X obj -644 172 *~;
#X msg -599 140 0;
#X msg -629 140 1;
#X obj -629 114 select 0;
#X obj -561 172 *~;
#X msg -516 140 0;
#X msg -546 140 1;
#X obj -462 173 *~;
#X msg -417 135 0;
#X msg -447 142 1;
#X obj -546 114 select 1;
#X obj -447 116 select 2;
#X obj -629 90 r osc2;
#X obj -546 90 r osc2;
#X obj -447 92 r osc2;
#X obj -808 232 *~ 0.5;
#X obj -563 233 *~ 0.5;
#X obj -672 470 *~ 0.2;
#X obj -671 525 outlet~;
#X obj -916 -79 inlet;
#X obj -916 -44 unpack f f;
#X obj -672 500 *~;
#X obj -617 470 vline~;
#X msg -650 412 l \$2 \, \$4 \$3 \$2;
#X msg -514 408 0 \$2;
#X obj -514 373 pack f f;
#X obj -514 343 sel 0;
#X obj -650 378 pack f f f f;
#X obj -627 297 r attack;
#X obj -604 320 r decay;
#X obj -581 343 r sustain;
#X obj -469 343 r release;
#X obj -916 -11 stripnote;
#X obj -916 16 mtof;
#X connect 0 0 39 0;
#X connect 1 0 41 0;
#X connect 2 0 5 0;
#X connect 3 0 10 0;
#X connect 4 0 14 0;
#X connect 5 0 0 0;
#X connect 6 0 5 1;
#X connect 7 0 5 1;
#X connect 8 0 9 0;
#X connect 9 0 7 0;
#X connect 9 1 6 0;
#X connect 10 0 0 0;
#X connect 11 0 10 1;
#X connect 12 0 10 1;
#X connect 13 0 18 0;
#X connect 14 0 0 1;
#X connect 15 0 14 1;
#X connect 16 0 14 1;
#X connect 17 0 19 0;
#X connect 18 0 12 0;
#X connect 18 1 11 0;
#X connect 19 0 16 0;
#X connect 19 1 15 0;
#X connect 20 0 40 0;
#X connect 21 0 24 0;
#X connect 22 0 28 0;
#X connect 23 0 31 0;
#X connect 24 0 20 0;
#X connect 25 0 24 1;
#X connect 26 0 24 1;
#X connect 27 0 26 0;
#X connect 27 1 25 0;
#X connect 28 0 20 0;
#X connect 29 0 28 1;
#X connect 30 0 28 1;
#X connect 31 0 20 1;
#X connect 32 0 31 1;
#X connect 33 0 31 1;
#X connect 34 0 30 0;
#X connect 34 1 29 0;
#X connect 35 0 33 0;
#X connect 35 1 32 0;
#X connect 36 0 27 0;
#X connect 37 0 34 0;
#X connect 38 0 35 0;
#X connect 39 0 1 0;
#X connect 40 0 1 1;
#X connect 41 0 45 0;
#X connect 43 0 44 0;
#X connect 44 0 56 0;
#X connect 44 1 50 0;
#X connect 44 1 56 1;
#X connect 45 0 42 0;
#X connect 46 0 45 1;
#X connect 47 0 46 0;
#X connect 48 0 46 0;
#X connect 49 0 48 0;
#X connect 50 0 49 0;
#X connect 51 0 47 0;
#X connect 52 0 51 1;
#X connect 53 0 51 2;
#X connect 54 0 51 3;
#X connect 55 0 49 1;
#X connect 56 0 51 0;
#X connect 56 0 57 0;
#X connect 57 0 2 0;
#X connect 57 0 3 0;
#X connect 57 0 4 0;
#X connect 57 0 21 0;
#X connect 57 0 22 0;
#X connect 57 0 23 0;
#X restore 211 292 pd voice;
#X obj 23 429 lop~;
#X obj 22 100 inlet;
#X obj 64 100 inlet;
#X obj 24 468 outlet~;
#N canvas 950 0 634 838 voice 0;
#X obj -807 208 +~;
#X obj -671 274 +~;
#X obj -916 63 phasor~;
#X obj -832 63 my_triangle~;
#X obj -744 63 my_square~;
#X obj -917 167 *~;
#X msg -860 138 0;
#X msg -890 138 1;
#X obj -890 88 r osc1;
#X obj -890 112 select 0;
#X obj -832 170 *~;
#X msg -787 138 0;
#X msg -817 138 1;
#X obj -817 88 r osc1;
#X obj -744 172 *~;
#X msg -699 139 0;
#X msg -729 139 1;
#X obj -729 89 r osc1;
#X obj -817 112 select 1;
#X obj -729 113 select 2;
#X obj -562 208 +~;
#X obj -644 65 phasor~;
#X obj -561 65 my_triangle~;
#X obj -463 66 my_square~;
#X obj -644 172 *~;
#X msg -599 140 0;
#X msg -629 140 1;
#X obj -629 114 select 0;
#X obj -561 172 *~;
#X msg -516 140 0;
#X msg -546 140 1;
#X obj -462 173 *~;
#X msg -417 135 0;
#X msg -447 142 1;
#X obj -546 114 select 1;
#X obj -447 116 select 2;
#X obj -629 90 r osc2;
#X obj -546 90 r osc2;
#X obj -447 92 r osc2;
#X obj -808 232 *~ 0.5;
#X obj -563 233 *~ 0.5;
#X obj -672 470 *~ 0.2;
#X obj -671 525 outlet~;
#X obj -916 -79 inlet;
#X obj -916 -44 unpack f f;
#X obj -672 500 *~;
#X obj -617 470 vline~;
#X msg -650 412 l \$2 \, \$4 \$3 \$2;
#X msg -514 408 0 \$2;
#X obj -514 373 pack f f;
#X obj -514 343 sel 0;
#X obj -650 378 pack f f f f;
#X obj -627 297 r attack;
#X obj -604 320 r decay;
#X obj -581 343 r sustain;
#X obj -469 343 r release;
#X obj -916 -11 stripnote;
#X obj -916 16 mtof;
#X connect 0 0 39 0;
#X connect 1 0 41 0;
#X connect 2 0 5 0;
#X connect 3 0 10 0;
#X connect 4 0 14 0;
#X connect 5 0 0 0;
#X connect 6 0 5 1;
#X connect 7 0 5 1;
#X connect 8 0 9 0;
#X connect 9 0 7 0;
#X connect 9 1 6 0;
#X connect 10 0 0 0;
#X connect 11 0 10 1;
#X connect 12 0 10 1;
#X connect 13 0 18 0;
#X connect 14 0 0 1;
#X connect 15 0 14 1;
#X connect 16 0 14 1;
#X connect 17 0 19 0;
#X connect 18 0 12 0;
#X connect 18 1 11 0;
#X connect 19 0 16 0;
#X connect 19 1 15 0;
#X connect 20 0 40 0;
#X connect 21 0 24 0;
#X connect 22 0 28 0;
#X connect 23 0 31 0;
#X connect 24 0 20 0;
#X connect 25 0 24 1;
#X connect 26 0 24 1;
#X connect 27 0 26 0;
#X connect 27 1 25 0;
#X connect 28 0 20 0;
#X connect 29 0 28 1;
#X connect 30 0 28 1;
#X connect 31 0 20 1;
#X connect 32 0 31 1;
#X connect 33 0 31 1;
#X connect 34 0 30 0;
#X connect 34 1 29 0;
#X connect 35 0 33 0;
#X connect 35 1 32 0;
#X connect 36 0 27 0;
#X connect 37 0 34 0;
#X connect 38 0 35 0;
#X connect 39 0 1 0;
#X connect 40 0 1 1;
#X connect 41 0 45 0;
#X connect 43 0 44 0;
#X connect 44 0 56 0;
#X connect 44 1 50 0;
#X connect 44 1 56 1;
#X connect 45 0 42 0;
#X connect 46 0 45 1;
#X connect 47 0 46 0;
#X connect 48 0 46 0;
#X connect 49 0 48 0;
#X connect 50 0 49 0;
#X connect 51 0 47 0;
#X connect 52 0 51 1;
#X connect 53 0 51 2;
#X connect 54 0 51 3;
#X connect 55 0 49 1;
#X connect 56 0 51 0;
#X connect 56 0 57 0;
#X connect 57 0 2 0;
#X connect 57 0 3 0;
#X connect 57 0 4 0;
#X connect 57 0 21 0;
#X connect 57 0 22 0;
#X connect 57 0 23 0;
#X restore 272 292 pd voice;
#N canvas 950 0 634 838 voice 0;
#X obj -807 208 +~;
#X obj -671 274 +~;
#X obj -916 63 phasor~;
#X obj -832 63 my_triangle~;
#X obj -744 63 my_square~;
#X obj -917 167 *~;
#X msg -860 138 0;
#X msg -890 138 1;
#X obj -890 88 r osc1;
#X obj -890 112 select 0;
#X obj -832 170 *~;
#X msg -787 138 0;
#X msg -817 138 1;
#X obj -817 88 r osc1;
#X obj -744 172 *~;
#X msg -699 139 0;
#X msg -729 139 1;
#X obj -729 89 r osc1;
#X obj -817 112 select 1;
#X obj -729 113 select 2;
#X obj -562 208 +~;
#X obj -644 65 phasor~;
#X obj -561 65 my_triangle~;
#X obj -463 66 my_square~;
#X obj -644 172 *~;
#X msg -599 140 0;
#X msg -629 140 1;
#X obj -629 114 select 0;
#X obj -561 172 *~;
#X msg -516 140 0;
#X msg -546 140 1;
#X obj -462 173 *~;
#X msg -417 135 0;
#X msg -447 142 1;
#X obj -546 114 select 1;
#X obj -447 116 select 2;
#X obj -629 90 r osc2;
#X obj -546 90 r osc2;
#X obj -447 92 r osc2;
#X obj -808 232 *~ 0.5;
#X obj -563 233 *~ 0.5;
#X obj -672 470 *~ 0.2;
#X obj -671 525 outlet~;
#X obj -916 -79 inlet;
#X obj -916 -44 unpack f f;
#X obj -672 500 *~;
#X obj -617 470 vline~;
#X msg -650 412 l \$2 \, \$4 \$3 \$2;
#X msg -514 408 0 \$2;
#X obj -514 373 pack f f;
#X obj -514 343 sel 0;
#X obj -650 378 pack f f f f;
#X obj -627 297 r attack;
#X obj -604 320 r decay;
#X obj -581 343 r sustain;
#X obj -469 343 r release;
#X obj -916 -11 stripnote;
#X obj -916 16 mtof;
#X connect 0 0 39 0;
#X connect 1 0 41 0;
#X connect 2 0 5 0;
#X connect 3 0 10 0;
#X connect 4 0 14 0;
#X connect 5 0 0 0;
#X connect 6 0 5 1;
#X connect 7 0 5 1;
#X connect 8 0 9 0;
#X connect 9 0 7 0;
#X connect 9 1 6 0;
#X connect 10 0 0 0;
#X connect 11 0 10 1;
#X connect 12 0 10 1;
#X connect 13 0 18 0;
#X connect 14 0 0 1;
#X connect 15 0 14 1;
#X connect 16 0 14 1;
#X connect 17 0 19 0;
#X connect 18 0 12 0;
#X connect 18 1 11 0;
#X connect 19 0 16 0;
#X connect 19 1 15 0;
#X connect 20 0 40 0;
#X connect 21 0 24 0;
#X connect 22 0 28 0;
#X connect 23 0 31 0;
#X connect 24 0 20 0;
#X connect 25 0 24 1;
#X connect 26 0 24 1;
#X connect 27 0 26 0;
#X connect 27 1 25 0;
#X connect 28 0 20 0;
#X connect 29 0 28 1;
#X connect 30 0 28 1;
#X connect 31 0 20 1;
#X connect 32 0 31 1;
#X connect 33 0 31 1;
#X connect 34 0 30 0;
#X connect 34 1 29 0;
#X connect 35 0 33 0;
#X connect 35 1 32 0;
#X connect 36 0 27 0;
#X connect 37 0 34 0;
#X connect 38 0 35 0;
#X connect 39 0 1 0;
#X connect 40 0 1 1;
#X connect 41 0 45 0;
#X connect 43 0 44 0;
#X connect 44 0 56 0;
#X connect 44 1 50 0;
#X connect 44 1 56 1;
#X connect 45 0 42 0;
#X connect 46 0 45 1;
#X connect 47 0 46 0;
#X connect 48 0 46 0;
#X connect 49 0 48 0;
#X connect 50 0 49 0;
#X connect 51 0 47 0;
#X connect 52 0 51 1;
#X connect 53 0 51 2;
#X connect 54 0 51 3;
#X connect 55 0 49 1;
#X connect 56 0 51 0;
#X connect 56 0 57 0;
#X connect 57 0 2 0;
#X connect 57 0 3 0;
#X connect 57 0 4 0;
#X connect 57 0 21 0;
#X connect 57 0 22 0;
#X connect 57 0 23 0;
#X restore 341 294 pd voice;
#N canvas 950 0 634 838 voice 0;
#X obj -807 208 +~;
#X obj -671 274 +~;
#X obj -916 63 phasor~;
#X obj -832 63 my_triangle~;
#X obj -744 63 my_square~;
#X obj -917 167 *~;
#X msg -860 138 0;
#X msg -890 138 1;
#X obj -890 88 r osc1;
#X obj -890 112 select 0;
#X obj -832 170 *~;
#X msg -787 138 0;
#X msg -817 138 1;
#X obj -817 88 r osc1;
#X obj -744 172 *~;
#X msg -699 139 0;
#X msg -729 139 1;
#X obj -729 89 r osc1;
#X obj -817 112 select 1;
#X obj -729 113 select 2;
#X obj -562 208 +~;
#X obj -644 65 phasor~;
#X obj -561 65 my_triangle~;
#X obj -463 66 my_square~;
#X obj -644 172 *~;
#X msg -599 140 0;
#X msg -629 140 1;
#X obj -629 114 select 0;
#X obj -561 172 *~;
#X msg -516 140 0;
#X msg -546 140 1;
#X obj -462 173 *~;
#X msg -417 135 0;
#X msg -447 142 1;
#X obj -546 114 select 1;
#X obj -447 116 select 2;
#X obj -629 90 r osc2;
#X obj -546 90 r osc2;
#X obj -447 92 r osc2;
#X obj -808 232 *~ 0.5;
#X obj -563 233 *~ 0.5;
#X obj -672 470 *~ 0.2;
#X obj -671 525 outlet~;
#X obj -916 -79 inlet;
#X obj -916 -44 unpack f f;
#X obj -672 500 *~;
#X obj -617 470 vline~;
#X msg -650 412 l \$2 \, \$4 \$3 \$2;
#X msg -514 408 0 \$2;
#X obj -514 373 pack f f;
#X obj -514 343 sel 0;
#X obj -650 378 pack f f f f;
#X obj -627 297 r attack;
#X obj -604 320 r decay;
#X obj -581 343 r sustain;
#X obj -469 343 r release;
#X obj -916 -11 stripnote;
#X obj -916 16 mtof;
#X connect 0 0 39 0;
#X connect 1 0 41 0;
#X connect 2 0 5 0;
#X connect 3 0 10 0;
#X connect 4 0 14 0;
#X connect 5 0 0 0;
#X connect 6 0 5 1;
#X connect 7 0 5 1;
#X connect 8 0 9 0;
#X connect 9 0 7 0;
#X connect 9 1 6 0;
#X connect 10 0 0 0;
#X connect 11 0 10 1;
#X connect 12 0 10 1;
#X connect 13 0 18 0;
#X connect 14 0 0 1;
#X connect 15 0 14 1;
#X connect 16 0 14 1;
#X connect 17 0 19 0;
#X connect 18 0 12 0;
#X connect 18 1 11 0;
#X connect 19 0 16 0;
#X connect 19 1 15 0;
#X connect 20 0 40 0;
#X connect 21 0 24 0;
#X connect 22 0 28 0;
#X connect 23 0 31 0;
#X connect 24 0 20 0;
#X connect 25 0 24 1;
#X connect 26 0 24 1;
#X connect 27 0 26 0;
#X connect 27 1 25 0;
#X connect 28 0 20 0;
#X connect 29 0 28 1;
#X connect 30 0 28 1;
#X connect 31 0 20 1;
#X connect 32 0 31 1;
#X connect 33 0 31 1;
#X connect 34 0 30 0;
#X connect 34 1 29 0;
#X connect 35 0 33 0;
#X connect 35 1 32 0;
#X connect 36 0 27 0;
#X connect 37 0 34 0;
#X connect 38 0 35 0;
#X connect 39 0 1 0;
#X connect 40 0 1 1;
#X connect 41 0 45 0;
#X connect 43 0 44 0;
#X connect 44 0 56 0;
#X connect 44 1 50 0;
#X connect 44 1 56 1;
#X connect 45 0 42 0;
#X connect 46 0 45 1;
#X connect 47 0 46 0;
#X connect 48 0 46 0;
#X connect 49 0 48 0;
#X connect 50 0 49 0;
#X connect 51 0 47 0;
#X connect 52 0 51 1;
#X connect 53 0 51 2;
#X connect 54 0 51 3;
#X connect 55 0 49 1;
#X connect 56 0 51 0;
#X connect 56 0 57 0;
#X connect 57 0 2 0;
#X connect 57 0 3 0;
#X connect 57 0 4 0;
#X connect 57 0 21 0;
#X connect 57 0 22 0;
#X connect 57 0 23 0;
#X restore 402 292 pd voice;
#N canvas 950 0 634 838 voice 0;
#X obj -807 208 +~;
#X obj -671 274 +~;
#X obj -916 63 phasor~;
#X obj -832 63 my_triangle~;
#X obj -744 63 my_square~;
#X obj -917 167 *~;
#X msg -860 138 0;
#X msg -890 138 1;
#X obj -890 88 r osc1;
#X obj -890 112 select 0;
#X obj -832 170 *~;
#X msg -787 138 0;
#X msg -817 138 1;
#X obj -817 88 r osc1;
#X obj -744 172 *~;
#X msg -699 139 0;
#X msg -729 139 1;
#X obj -729 89 r osc1;
#X obj -817 112 select 1;
#X obj -729 113 select 2;
#X obj -562 208 +~;
#X obj -644 65 phasor~;
#X obj -561 65 my_triangle~;
#X obj -463 66 my_square~;
#X obj -644 172 *~;
#X msg -599 140 0;
#X msg -629 140 1;
#X obj -629 114 select 0;
#X obj -561 172 *~;
#X msg -516 140 0;
#X msg -546 140 1;
#X obj -462 173 *~;
#X msg -417 135 0;
#X msg -447 142 1;
#X obj -546 114 select 1;
#X obj -447 116 select 2;
#X obj -629 90 r osc2;
#X obj -546 90 r osc2;
#X obj -447 92 r osc2;
#X obj -808 232 *~ 0.5;
#X obj -563 233 *~ 0.5;
#X obj -672 470 *~ 0.2;
#X obj -671 525 outlet~;
#X obj -916 -79 inlet;
#X obj -916 -44 unpack f f;
#X obj -672 500 *~;
#X obj -617 470 vline~;
#X msg -650 412 l \$2 \, \$4 \$3 \$2;
#X msg -514 408 0 \$2;
#X obj -514 373 pack f f;
#X obj -514 343 sel 0;
#X obj -650 378 pack f f f f;
#X obj -627 297 r attack;
#X obj -604 320 r decay;
#X obj -581 343 r sustain;
#X obj -469 343 r release;
#X obj -916 -11 stripnote;
#X obj -916 16 mtof;
#X connect 0 0 39 0;
#X connect 1 0 41 0;
#X connect 2 0 5 0;
#X connect 3 0 10 0;
#X connect 4 0 14 0;
#X connect 5 0 0 0;
#X connect 6 0 5 1;
#X connect 7 0 5 1;
#X connect 8 0 9 0;
#X connect 9 0 7 0;
#X connect 9 1 6 0;
#X connect 10 0 0 0;
#X connect 11 0 10 1;
#X connect 12 0 10 1;
#X connect 13 0 18 0;
#X connect 14 0 0 1;
#X connect 15 0 14 1;
#X connect 16 0 14 1;
#X connect 17 0 19 0;
#X connect 18 0 12 0;
#X connect 18 1 11 0;
#X connect 19 0 16 0;
#X connect 19 1 15 0;
#X connect 20 0 40 0;
#X connect 21 0 24 0;
#X connect 22 0 28 0;
#X connect 23 0 31 0;
#X connect 24 0 20 0;
#X connect 25 0 24 1;
#X connect 26 0 24 1;
#X connect 27 0 26 0;
#X connect 27 1 25 0;
#X connect 28 0 20 0;
#X connect 29 0 28 1;
#X connect 30 0 28 1;
#X connect 31 0 20 1;
#X connect 32 0 31 1;
#X connect 33 0 31 1;
#X connect 34 0 30 0;
#X connect 34 1 29 0;
#X connect 35 0 33 0;
#X connect 35 1 32 0;
#X connect 36 0 27 0;
#X connect 37 0 34 0;
#X connect 38 0 35 0;
#X connect 39 0 1 0;
#X connect 40 0 1 1;
#X connect 41 0 45 0;
#X connect 43 0 44 0;
#X connect 44 0 56 0;
#X connect 44 1 50 0;
#X connect 44 1 56 1;
#X connect 45 0 42 0;
#X connect 46 0 45 1;
#X connect 47 0 46 0;
#X connect 48 0 46 0;
#X connect 49 0 48 0;
#X connect 50 0 49 0;
#X connect 51 0 47 0;
#X connect 52 0 51 1;
#X connect 53 0 51 2;
#X connect 54 0 51 3;
#X connect 55 0 49 1;
#X connect 56 0 51 0;
#X connect 56 0 57 0;
#X connect 57 0 2 0;
#X connect 57 0 3 0;
#X connect 57 0 4 0;
#X connect 57 0 21 0;
#X connect 57 0 22 0;
#X connect 57 0 23 0;
#X restore 461 292 pd voice;
#X obj 229 380 r lop;
#X connect 1 0 0 0;
#X connect 1 0 2 0;
#X connect 1 0 3 0;
#X connect 1 0 4 0;
#X connect 1 0 5 0;
#X connect 1 0 6 0;
#X connect 1 0 7 0;
#X connect 11 0 18 0;
#X connect 12 0 13 0;
#X connect 12 1 13 1;
#X connect 12 2 13 2;
#X connect 13 0 14 0;
#X connect 14 0 11 0;
#X connect 14 1 15 0;
#X connect 14 2 16 0;
#X connect 14 3 17 0;
#X connect 14 4 22 0;
#X connect 14 5 23 0;
#X connect 14 6 24 0;
#X connect 14 7 25 0;
#X connect 15 0 18 0;
#X connect 16 0 18 0;
#X connect 17 0 18 0;
#X connect 18 0 21 0;
#X connect 19 0 12 0;
#X connect 20 0 12 1;
#X connect 22 0 18 0;
#X connect 23 0 18 0;
#X connect 24 0 18 0;
#X connect 25 0 18 0;
#X connect 26 0 18 1;
#X coords 0 -1 1 1 320 150 1 100 100;
